<svg width="162" height="162" viewBox="0 0 162 162" fill="none" xmlns="http://www.w3.org/2000/svg">
<circle cx="81" cy="81" r="81" fill="#517FBB"/>
<path d="M96.741 80C100.808 80.8667 104.074 82.9 106.541 86.1C109.008 89.2333 110.241 92.8333 110.241 96.9C110.241 102.767 108.174 107.433 104.041 110.9C99.9743 114.3 94.2744 116 86.941 116H54.241V45.8H85.841C92.9744 45.8 98.541 47.4333 102.541 50.7C106.608 53.9667 108.641 58.4 108.641 64C108.641 68.1333 107.541 71.5667 105.341 74.3C103.208 77.0333 100.341 78.9333 96.741 80ZM71.341 74.2H82.541C85.341 74.2 87.4744 73.6 88.941 72.4C90.4744 71.1333 91.241 69.3 91.241 66.9C91.241 64.5 90.4744 62.6667 88.941 61.4C87.4744 60.1333 85.341 59.5 82.541 59.5H71.341V74.2ZM83.941 102.2C86.8077 102.2 89.0077 101.567 90.541 100.3C92.141 98.9667 92.941 97.0667 92.941 94.6C92.941 92.1333 92.1077 90.2 90.441 88.8C88.841 87.4 86.6077 86.7 83.741 86.7H71.341V102.2H83.941Z" fill="white"/>
</svg>
