<svg width="162" height="162" viewBox="0 0 162 162" fill="none" xmlns="http://www.w3.org/2000/svg">
<circle cx="81" cy="81" r="81" fill="#EB6ABA"/>
<path d="M46.7141 80.8C46.7141 73.8667 48.2141 67.7 51.2141 62.3C54.2141 56.8333 58.3807 52.6 63.7141 49.6C69.1141 46.5333 75.2141 45 82.0141 45C90.3474 45 97.4807 47.2 103.414 51.6C109.347 56 113.314 62 115.314 69.6H96.5141C95.1141 66.6667 93.1141 64.4333 90.5141 62.9C87.9807 61.3667 85.0807 60.6 81.8141 60.6C76.5474 60.6 72.2807 62.4333 69.0141 66.1C65.7474 69.7667 64.1141 74.6667 64.1141 80.8C64.1141 86.9333 65.7474 91.8333 69.0141 95.5C72.2807 99.1667 76.5474 101 81.8141 101C85.0807 101 87.9807 100.233 90.5141 98.7C93.1141 97.1667 95.1141 94.9333 96.5141 92H115.314C113.314 99.6 109.347 105.6 103.414 110C97.4807 114.333 90.3474 116.5 82.0141 116.5C75.2141 116.5 69.1141 115 63.7141 112C58.3807 108.933 54.2141 104.7 51.2141 99.3C48.2141 93.9 46.7141 87.7333 46.7141 80.8Z" fill="white"/>
</svg>
